<svg id="Layer_1" data-name="Layer 1" xmlns="http://www.w3.org/2000/svg" viewBox="0 0 256 256"><defs><style>.cls-1{fill:#66182a;}.cls-2{fill:#df4452;}.cls-3{fill:#cc5e14;}.cls-4{fill:#ffa366;}</style></defs><title>Artboard 1</title><path class="cls-1" d="M128,251A123,123,0,1,1,251,128,123.14,123.14,0,0,1,128,251Z"/><path class="cls-2" d="M128,10a118,118,0,0,1,83.44,201.44A118,118,0,0,1,44.56,44.56,117.23,117.23,0,0,1,128,10m0-10A128,128,0,1,0,256,128,128,128,0,0,0,128,0Z"/><circle class="cls-3" cx="128" cy="128" r="64"/><rect class="cls-3" x="23.39" y="121.38" width="34.37" height="14.24" rx="7.12" ry="7.12"/><rect class="cls-3" x="198.02" y="121.38" width="34.37" height="14.24" rx="7.12" ry="7.12"/><rect class="cls-3" x="48.96" y="183.12" width="34.37" height="14.24" rx="7.12" ry="7.12" transform="translate(-115.14 102.5) rotate(-45)"/><rect class="cls-3" x="172.45" y="59.64" width="34.37" height="14.24" rx="7.12" ry="7.12" transform="translate(8.34 153.64) rotate(-45)"/><rect class="cls-3" x="110.71" y="208.7" width="34.37" height="14.24" rx="7.12" ry="7.12" transform="translate(-87.92 343.71) rotate(-90)"/><rect class="cls-3" x="110.71" y="34.07" width="34.37" height="14.24" rx="7.12" ry="7.12" transform="translate(86.71 169.08) rotate(-90)"/><rect class="cls-3" x="172.45" y="183.12" width="34.37" height="14.24" rx="7.12" ry="7.12" transform="translate(189.2 458.85) rotate(-135)"/><rect class="cls-3" x="48.96" y="59.64" width="34.37" height="14.24" rx="7.12" ry="7.12" transform="translate(65.72 160.74) rotate(-135)"/><path class="cls-4" d="M168.41,155.86,131,78.53q-3-3.06-6,0L87.53,156a6.41,6.41,0,0,0,1,7.18A5.28,5.28,0,0,0,92.19,165h71.62a5.08,5.08,0,0,0,3.68-1.78,6.11,6.11,0,0,0,1.66-4.3A6.52,6.52,0,0,0,168.41,155.86ZM142.52,132h-29c-1.09,0-1.77-1.44-1.22-2.59l7.25-15.34,5.06-10.67a3.79,3.79,0,0,1,6.86,0l5.06,10.67,7.25,15.34C144.29,130.56,143.61,132,142.52,132Z"/></svg>